<svg version="1.1" id="Layer_1" xmlns="http://www.w3.org/2000/svg" xmlns:xlink="http://www.w3.org/1999/xlink" x="0px" y="0px"
	 width="100%" viewBox="0 0 243 67" enable-background="new 0 0 243 67" xml:space="preserve">
<path fill="#F7F9FB" opacity="1.000000" stroke="none" 
	d="
M181.000000,68.000000 
	C120.666687,68.000000 60.833370,68.000000 1.000040,68.000000 
	C1.000027,45.666691 1.000027,23.333382 1.000013,1.000055 
	C81.999947,1.000037 162.999893,1.000037 243.999878,1.000018 
	C243.999924,23.333277 243.999924,45.666553 243.999969,67.999916 
	C223.166672,68.000000 202.333328,68.000000 181.000000,68.000000 
M31.869684,39.814812 
	C31.869684,39.814812 31.836412,39.637249 32.386326,39.397030 
	C32.694004,38.671925 33.001678,37.946815 32.994961,37.038155 
	C32.994961,37.038155 33.307373,37.230087 33.811905,36.955372 
	C34.579006,36.946270 35.346107,36.937168 36.319111,37.600830 
	C36.492180,37.759098 36.665253,37.917362 36.849243,38.590900 
	C37.205311,39.123299 37.561375,39.655697 37.975842,40.874039 
	C42.799026,46.002666 46.007835,45.667896 49.355194,39.626286 
	C49.985336,38.488949 50.378170,37.220135 51.224380,35.451401 
	C51.816017,34.300407 52.407654,33.149410 53.543324,31.773619 
	C54.021877,31.471958 54.500431,31.170296 55.542591,30.844801 
	C55.994640,30.539370 56.446693,30.233938 56.952297,29.977859 
	C56.952297,29.977859 56.969345,29.907059 57.727875,30.002832 
	C58.491863,29.991936 59.255852,29.981039 60.109604,30.248291 
	C60.184723,30.305574 60.259846,30.362858 60.334965,30.420141 
	C60.215450,30.284079 60.095936,30.148018 59.829479,29.454142 
	C59.589508,28.952017 59.349537,28.449892 59.035870,28.005814 
	C59.035870,28.005814 59.098442,27.945047 59.111515,27.335737 
	C58.776276,26.846991 58.441036,26.358244 57.949795,25.399843 
	C57.949795,25.399843 57.658604,24.999693 57.596245,24.604916 
	C57.451576,24.351458 57.233768,24.212078 56.753571,23.683968 
	C56.471085,23.473379 56.188599,23.262791 55.674641,22.374407 
	C52.496204,18.665434 49.597977,18.886396 46.622746,23.566017 
	C45.997826,25.181641 45.372910,26.797264 44.330204,28.672956 
	C44.330204,28.672956 44.001022,29.038780 43.348087,28.781227 
	C42.077427,26.699146 40.897358,24.554646 39.515541,22.549152 
	C37.267635,19.286671 34.160824,18.880070 31.632059,21.672037 
	C29.434004,24.098877 28.164574,27.366798 26.005793,30.710447 
	C25.342896,31.804747 24.679996,32.899048 23.466248,34.376038 
	C21.740143,37.250786 20.014040,40.125530 18.077232,43.351192 
	C23.107481,45.055561 27.042326,45.068249 30.882366,41.210377 
	C31.153891,40.762806 31.425415,40.315235 31.869684,39.814812 
M181.744919,42.907772 
	C182.278091,42.503674 183.258423,42.115875 183.273834,41.692902 
	C183.399368,38.249474 183.344452,34.799465 183.344452,31.351460 
	C182.914215,31.122297 182.483963,30.893135 182.053726,30.663973 
	C181.387329,31.617670 180.307877,32.504810 180.141220,33.539032 
	C179.802750,35.639507 179.957733,37.819492 179.050720,40.346828 
	C177.953049,39.437820 176.405151,38.731186 175.880768,37.564507 
	C175.324844,36.327663 175.955673,34.607872 175.651840,33.188107 
	C175.473022,32.352528 174.484589,31.690212 173.860275,30.949972 
	C173.325897,31.629988 172.467087,32.241592 172.307053,33.000538 
	C170.593246,41.128662 173.227280,43.928459 181.744919,42.907772 
M125.217712,44.162895 
	C126.534737,43.799030 127.830956,43.287373 129.172607,43.098564 
	C133.477692,42.492733 133.857803,39.297478 133.685577,36.035324 
	C133.520935,32.917145 132.214783,30.518059 128.403214,30.902195 
	C126.384308,31.105661 124.358421,31.239912 122.249611,31.412453 
	C122.249611,36.061661 122.249611,40.528667 122.108292,45.712616 
	C122.815689,46.100403 123.523094,46.488190 124.230492,46.875980 
	C124.496819,46.253979 124.763145,45.631973 125.217712,44.162895 
M87.083755,36.718391 
	C87.426117,37.619186 87.768478,38.519981 88.110832,39.420776 
	C86.599472,39.662369 85.019127,40.293980 83.595070,40.042061 
	C81.989571,39.758045 80.524788,38.678635 77.988678,37.459663 
	C80.019432,43.309216 83.800255,43.751083 87.318291,42.776184 
	C89.169289,42.263241 91.525879,39.680096 91.705467,37.841412 
	C92.078972,34.017254 88.542953,33.552776 85.559860,32.829414 
	C84.272491,32.517250 83.193665,31.345070 82.020103,30.563574 
	C82.177483,30.056870 82.334869,29.550163 82.492249,29.043457 
	C83.992111,29.043457 85.506699,28.914127 86.987373,29.082664 
	C88.268349,29.228474 89.510841,29.712477 91.399666,30.214127 
	C90.940895,28.617367 90.943207,28.418627 90.845123,28.314116 
	C88.061745,25.348505 84.655853,25.004515 81.437523,27.008829 
	C80.104149,27.839235 78.855286,30.267862 79.040131,31.791002 
	C79.534363,35.863472 83.298363,35.722359 87.083755,36.718391 
M152.814072,41.360962 
	C153.456223,41.892101 154.098389,42.423241 154.740555,42.954388 
	C155.181335,42.214230 155.963974,41.491421 156.002579,40.730846 
	C156.153931,37.749004 156.293961,34.732697 155.995285,31.773901 
	C155.798355,29.823015 154.844727,27.948509 154.229935,26.039799 
	C153.739502,27.896309 153.255859,29.754663 152.751862,31.607483 
	C152.669418,31.910524 152.497131,32.189129 152.346817,32.522385 
	C149.993668,32.522385 147.651657,32.522385 145.186279,32.522385 
	C145.186279,30.942003 145.362991,29.746843 145.131607,28.636755 
	C144.938721,27.711412 144.267166,26.885855 143.807602,26.016106 
	C143.180283,26.911049 142.060394,27.780075 142.011703,28.705463 
	C141.811279,32.514465 141.820786,36.346699 142.022186,40.156162 
	C142.073044,41.118088 143.119354,42.027378 143.708237,42.960854 
	C144.204666,41.955490 144.885620,40.995838 145.148987,39.932732 
	C145.451263,38.712563 145.383392,37.400703 145.470245,36.211819 
	C148.051620,36.211819 150.286819,36.211819 152.796844,36.211819 
	C152.796844,37.840038 152.796844,39.142464 152.814072,41.360962 
M209.513107,37.382038 
	C209.975433,33.904202 208.756531,31.008982 205.106934,31.095476 
	C202.980301,31.145880 199.461792,32.999214 199.140686,34.567726 
	C198.654556,36.942360 199.647049,40.625004 201.403122,42.201504 
	C203.650467,44.219006 207.020340,43.769169 208.787720,40.354950 
	C206.500229,40.198112 204.243866,40.043411 201.987503,39.888710 
	C202.026886,39.308369 202.066269,38.728031 202.105667,38.147690 
	C204.341843,38.034237 206.578033,37.920784 209.513107,37.382038 
M110.501808,31.700375 
	C106.551819,36.574959 107.534882,42.516960 112.544250,42.892605 
	C114.493484,43.038776 117.524231,41.938534 118.356056,40.451542 
	C119.380013,38.621105 119.577164,34.931717 118.390579,33.616150 
	C116.921928,31.987839 113.666252,31.971338 110.501808,31.700375 
M194.450455,42.587654 
	C194.849197,40.857368 195.469620,39.140491 195.575409,37.392479 
	C195.657562,36.034782 195.097641,34.638237 194.823105,33.258957 
	C195.182846,32.759979 195.542603,32.261002 195.902344,31.762026 
	C193.498840,31.566053 191.068771,31.093748 188.705917,31.320822 
	C187.854599,31.402634 186.337906,33.812401 186.530975,34.059029 
	C188.204437,36.196682 190.198410,38.083439 192.649521,40.615723 
	C190.478317,40.132103 188.521408,39.696220 186.411285,39.226208 
	C188.220276,43.187912 188.220276,43.187912 194.450455,42.587654 
M105.047035,40.200386 
	C105.051277,39.039738 105.055931,37.879089 105.059708,36.718441 
	C105.078110,31.068712 104.253029,30.423840 98.221748,31.488510 
	C98.174500,30.653627 98.271080,29.791605 98.047325,29.022812 
	C97.730637,27.934694 97.177544,26.915380 96.725487,25.866659 
	C96.130859,26.940460 95.069221,27.994585 95.023003,29.091496 
	C94.829857,33.675430 94.941605,38.272205 94.941605,42.864277 
	C95.354507,43.028587 95.767410,43.192894 96.180313,43.357204 
	C96.807205,42.555668 97.809204,41.825768 97.978966,40.936924 
	C98.284897,39.335072 97.886391,37.599476 98.186508,35.995411 
	C98.363167,35.051220 99.318436,34.252708 99.923515,33.388672 
	C100.799950,34.203770 102.195381,34.889202 102.438545,35.862518 
	C102.868561,37.583706 102.489517,39.491543 102.681374,41.296577 
	C102.743805,41.883995 103.530640,42.394417 103.986153,42.940056 
	C104.336075,42.325207 104.686005,41.710358 105.047035,40.200386 
M160.738159,32.159985 
	C157.658554,37.267792 158.692001,42.401531 163.166489,42.846397 
	C165.116104,43.040237 168.450226,42.023945 169.004837,40.673790 
	C169.930313,38.420734 170.087723,34.696785 168.762009,33.022369 
	C167.600800,31.555706 163.956375,32.055107 160.738159,32.159985 
M56.390961,38.831913 
	C55.232368,43.500465 58.884605,42.560177 61.196583,42.685783 
	C62.519825,42.757671 65.045837,41.846264 65.044159,41.384789 
	C65.037834,39.647327 64.753357,37.235352 63.591431,36.314178 
	C60.935555,34.208614 58.349323,35.113037 56.390961,38.831913 
z"/>
<path fill="#393E42" opacity="1.000000" stroke="none" 
	d="
M86.712181,36.506210 
	C83.298363,35.722359 79.534363,35.863472 79.040131,31.791002 
	C78.855286,30.267862 80.104149,27.839235 81.437523,27.008829 
	C84.655853,25.004515 88.061745,25.348505 90.845123,28.314116 
	C90.943207,28.418627 90.940895,28.617367 91.399666,30.214127 
	C89.510841,29.712477 88.268349,29.228474 86.987373,29.082664 
	C85.506699,28.914127 83.992111,29.043457 82.492249,29.043457 
	C82.334869,29.550163 82.177483,30.056870 82.020103,30.563574 
	C83.193665,31.345070 84.272491,32.517250 85.559860,32.829414 
	C88.542953,33.552776 92.078972,34.017254 91.705467,37.841412 
	C91.525879,39.680096 89.169289,42.263241 87.318291,42.776184 
	C83.800255,43.751083 80.019432,43.309216 77.988678,37.459663 
	C80.524788,38.678635 81.989571,39.758045 83.595070,40.042061 
	C85.019127,40.293980 86.599472,39.662369 88.110832,39.420776 
	C87.768478,38.519981 87.426117,37.619186 86.712181,36.506210 
z"/>
<path fill="#4986DC" opacity="1.000000" stroke="none" 
	d="
M52.999287,31.998413 
	C52.407654,33.149410 51.816017,34.300407 50.703728,35.775089 
	C46.129810,37.050766 42.076538,38.002758 37.938004,38.775822 
	C37.514603,38.423141 37.176460,38.249386 36.838322,38.075630 
	C36.665253,37.917362 36.492180,37.759098 36.432915,37.066444 
	C35.697834,36.007244 34.848957,35.482433 33.976028,34.635311 
	C33.283852,33.222710 32.615730,32.132420 32.120865,30.945147 
	C32.173000,30.572487 32.051880,30.296814 31.948044,30.050850 
	C31.965332,30.080561 31.913200,30.125374 32.161942,29.817413 
	C33.970654,29.513935 35.533436,29.579714 37.089939,29.508461 
	C39.395966,29.402901 41.697548,29.200153 44.001022,29.038780 
	C44.001022,29.038780 44.330204,28.672956 44.668312,28.872631 
	C47.670708,30.047676 50.334995,31.023045 52.999287,31.998413 
z"/>
<path fill="#2E333B" opacity="1.000000" stroke="none" 
	d="
M152.805450,40.902924 
	C152.796844,39.142464 152.796844,37.840038 152.796844,36.211819 
	C150.286819,36.211819 148.051620,36.211819 145.470245,36.211819 
	C145.383392,37.400703 145.451263,38.712563 145.148987,39.932732 
	C144.885620,40.995838 144.204666,41.955490 143.708237,42.960854 
	C143.119354,42.027378 142.073044,41.118088 142.022186,40.156162 
	C141.820786,36.346699 141.811279,32.514465 142.011703,28.705463 
	C142.060394,27.780075 143.180283,26.911049 143.807602,26.016106 
	C144.267166,26.885855 144.938721,27.711412 145.131607,28.636755 
	C145.362991,29.746843 145.186279,30.942003 145.186279,32.522385 
	C147.651657,32.522385 149.993668,32.522385 152.346817,32.522385 
	C152.497131,32.189129 152.669418,31.910524 152.751862,31.607483 
	C153.255859,29.754663 153.739502,27.896309 154.229919,26.039801 
	C154.844727,27.948509 155.798355,29.823015 155.995285,31.773901 
	C156.293961,34.732697 156.153931,37.749004 156.002579,40.730846 
	C155.963974,41.491421 155.181335,42.214230 154.740540,42.954384 
	C154.098389,42.423241 153.456223,41.892101 152.805450,40.902924 
z"/>
<path fill="#6BA0E4" opacity="1.000000" stroke="none" 
	d="
M43.674553,28.910004 
	C41.697548,29.200153 39.395966,29.402901 37.089939,29.508461 
	C35.533436,29.579714 33.970654,29.513935 31.770432,29.804482 
	C29.581711,30.154016 28.033239,30.208525 26.484768,30.263031 
	C28.164574,27.366798 29.434004,24.098877 31.632059,21.672037 
	C34.160824,18.880070 37.267635,19.286671 39.515541,22.549152 
	C40.897358,24.554646 42.077427,26.699146 43.674553,28.910004 
z"/>
<path fill="#383F46" opacity="1.000000" stroke="none" 
	d="
M122.249611,44.995670 
	C122.249611,40.528667 122.249611,36.061661 122.249611,31.412453 
	C124.358421,31.239912 126.384308,31.105661 128.403214,30.902195 
	C132.214783,30.518059 133.520935,32.917145 133.685577,36.035324 
	C133.857803,39.297478 133.477692,42.492733 129.172607,43.098564 
	C127.830956,43.287373 126.534737,43.799030 124.776108,44.584778 
	C123.639542,45.002998 122.944572,44.999332 122.249611,44.995670 
M127.629837,33.116222 
	C124.463799,35.018356 124.448967,37.536182 126.629150,40.052162 
	C127.051559,40.539639 129.416229,40.292561 129.820816,39.680683 
	C131.459854,37.201832 131.490936,34.724060 127.629837,33.116222 
z"/>
<path fill="#393E43" opacity="1.000000" stroke="none" 
	d="
M209.163666,37.594688 
	C206.578033,37.920784 204.341843,38.034237 202.105667,38.147690 
	C202.066269,38.728031 202.026886,39.308369 201.987503,39.888710 
	C204.243866,40.043411 206.500229,40.198112 208.787720,40.354950 
	C207.020340,43.769169 203.650467,44.219006 201.403122,42.201504 
	C199.647049,40.625004 198.654556,36.942360 199.140686,34.567726 
	C199.461792,32.999214 202.980301,31.145880 205.106934,31.095476 
	C208.756531,31.008982 209.975433,33.904202 209.163666,37.594688 
z"/>
<path fill="#3A4045" opacity="1.000000" stroke="none" 
	d="
M110.842209,31.479435 
	C113.666252,31.971338 116.921928,31.987839 118.390579,33.616150 
	C119.577164,34.931717 119.380013,38.621105 118.356056,40.451542 
	C117.524231,41.938534 114.493484,43.038776 112.544250,42.892605 
	C107.534882,42.516960 106.551819,36.574959 110.842209,31.479435 
M116.004311,38.910568 
	C116.086044,38.260723 116.455750,37.445545 116.195419,36.992092 
	C115.420563,35.642452 114.398094,34.434971 113.472389,33.171940 
	C112.740150,34.932785 111.264557,36.778419 111.453423,38.434200 
	C111.723022,40.797813 113.581276,41.640770 116.004311,38.910568 
z"/>
<path fill="#3C4046" opacity="1.000000" stroke="none" 
	d="
M194.095947,42.733826 
	C188.220276,43.187912 188.220276,43.187912 186.411285,39.226208 
	C188.521408,39.696220 190.478317,40.132103 192.649521,40.615723 
	C190.198410,38.083439 188.204437,36.196682 186.530975,34.059029 
	C186.337906,33.812401 187.854599,31.402634 188.705917,31.320822 
	C191.068771,31.093748 193.498840,31.566053 195.902344,31.762026 
	C195.542603,32.261002 195.182846,32.759979 194.823105,33.258957 
	C195.097641,34.638237 195.657562,36.034782 195.575409,37.392479 
	C195.469620,39.140491 194.849197,40.857368 194.095947,42.733826 
M193.521347,35.018723 
	C192.458435,34.315838 191.395523,33.612953 190.332611,32.910069 
	C190.070007,33.448391 189.807419,33.986713 189.544830,34.525032 
	C190.610352,34.924664 191.675873,35.324295 193.521347,35.018723 
z"/>
<path fill="#34393E" opacity="1.000000" stroke="none" 
	d="
M105.041481,40.647949 
	C104.686005,41.710358 104.336075,42.325207 103.986153,42.940056 
	C103.530640,42.394417 102.743805,41.883995 102.681374,41.296577 
	C102.489517,39.491543 102.868561,37.583706 102.438545,35.862518 
	C102.195381,34.889202 100.799950,34.203770 99.923515,33.388672 
	C99.318436,34.252708 98.363167,35.051220 98.186508,35.995411 
	C97.886391,37.599476 98.284897,39.335072 97.978966,40.936924 
	C97.809204,41.825768 96.807205,42.555668 96.180313,43.357204 
	C95.767410,43.192894 95.354507,43.028587 94.941605,42.864277 
	C94.941605,38.272205 94.829857,33.675430 95.023003,29.091496 
	C95.069221,27.994585 96.130859,26.940460 96.725487,25.866657 
	C97.177544,26.915380 97.730637,27.934694 98.047325,29.022812 
	C98.271080,29.791605 98.174500,30.653627 98.221748,31.488510 
	C104.253029,30.423840 105.078110,31.068712 105.059708,36.718441 
	C105.055931,37.879089 105.051277,39.039738 105.041481,40.647949 
z"/>
<path fill="#629CE3" opacity="1.000000" stroke="none" 
	d="
M53.271305,31.886017 
	C50.334995,31.023045 47.670708,30.047676 44.877205,28.742599 
	C45.372910,26.797264 45.997826,25.181641 47.249611,23.274342 
	C50.553020,23.005846 53.229565,23.029024 55.906113,23.052204 
	C56.188599,23.262791 56.471085,23.473379 56.922611,24.106960 
	C57.228294,24.749716 57.417278,24.906296 57.658604,24.999693 
	C57.658604,24.999693 57.949795,25.399843 58.008057,25.950340 
	C58.410362,26.982241 58.754402,27.463644 59.098442,27.945047 
	C59.098442,27.945047 59.035870,28.005814 58.893536,28.211367 
	C58.157249,28.913633 57.563297,29.410347 56.969345,29.907059 
	C56.969345,29.907059 56.952297,29.977859 56.642796,29.970104 
	C55.881859,30.264444 55.430424,30.566542 54.978989,30.868635 
	C54.500431,31.170296 54.021877,31.471958 53.271305,31.886017 
z"/>
<path fill="#363B41" opacity="1.000000" stroke="none" 
	d="
M161.073517,31.923004 
	C163.956375,32.055107 167.600800,31.555706 168.762009,33.022369 
	C170.087723,34.696785 169.930313,38.420734 169.004837,40.673790 
	C168.450226,42.023945 165.116104,43.040237 163.166489,42.846397 
	C158.692001,42.401531 157.658554,37.267792 161.073517,31.923004 
M163.760162,33.233971 
	C161.244080,35.344955 161.167725,37.796242 163.254761,40.081032 
	C163.682526,40.549309 166.254654,40.096775 166.450699,39.560966 
	C167.350296,37.102291 168.251511,34.308941 163.760162,33.233971 
z"/>
<path fill="#3D72C4" opacity="1.000000" stroke="none" 
	d="
M38.023270,38.954746 
	C42.076538,38.002758 46.129810,37.050766 50.531792,36.055382 
	C50.378170,37.220135 49.985336,38.488949 49.355194,39.626286 
	C46.007835,45.667896 42.799026,46.002666 37.975555,40.222954 
	C37.991268,39.366165 38.007267,39.160458 38.023270,38.954746 
z"/>
<path fill="#6294D5" opacity="1.000000" stroke="none" 
	d="
M56.542404,38.500340 
	C58.349323,35.113037 60.935555,34.208614 63.591431,36.314178 
	C64.753357,37.235352 65.037834,39.647327 65.044159,41.384789 
	C65.045837,41.846264 62.519825,42.757671 61.196583,42.685783 
	C58.884605,42.560177 55.232368,43.500465 56.542404,38.500340 
z"/>
<path fill="#4F545A" opacity="1.000000" stroke="none" 
	d="
M181.068756,42.443478 
	C173.227280,43.928459 170.593246,41.128662 172.307053,33.000538 
	C172.467087,32.241592 173.325897,31.629988 173.860275,30.949970 
	C174.484589,31.690212 175.473022,32.352528 175.651840,33.188107 
	C175.955673,34.607872 175.324844,36.327663 175.880768,37.564507 
	C176.405151,38.731186 177.953049,39.437820 179.726166,40.313629 
	C180.623993,41.001442 180.846375,41.722458 181.068756,42.443478 
z"/>
<path fill="#2056AF" opacity="1.000000" stroke="none" 
	d="
M26.245281,30.486740 
	C28.033239,30.208525 29.581711,30.154016 31.521690,30.112442 
	C31.913200,30.125374 31.965332,30.080561 31.905043,30.307022 
	C31.879038,30.703035 31.913321,30.872583 31.947605,31.042131 
	C32.615730,32.132420 33.283852,33.222710 33.749504,34.861477 
	C33.467144,36.016666 33.387257,36.623375 33.307373,37.230087 
	C33.307373,37.230087 32.994961,37.038155 32.849976,37.209114 
	C32.415462,38.132462 32.125935,38.884853 31.836411,39.637249 
	C31.836412,39.637249 31.869684,39.814812 31.499817,39.865696 
	C30.752773,39.956429 30.375597,39.996273 29.996712,39.651951 
	C30.008976,35.434998 27.426529,34.433552 24.227097,33.992062 
	C24.164099,33.947910 24.017099,33.993347 24.017097,33.993347 
	C24.679996,32.899048 25.342896,31.804747 26.245281,30.486740 
z"/>
<path fill="#4171B8" opacity="1.000000" stroke="none" 
	d="
M30.371370,41.436188 
	C27.042326,45.068249 23.107481,45.055561 18.077232,43.351192 
	C20.014040,40.125530 21.740143,37.250786 23.741673,34.184692 
	C24.017099,33.993347 24.164099,33.947910 24.137035,34.379219 
	C23.456680,36.930180 22.803385,39.049828 21.828587,42.212616 
	C24.994650,41.718887 27.469721,41.332912 30.052593,41.068245 
	C30.160393,41.189548 30.371370,41.436188 30.371370,41.436188 
z"/>
<path fill="#33383D" opacity="1.000000" stroke="none" 
	d="
M181.406830,42.675625 
	C180.846375,41.722458 180.623993,41.001442 180.155487,40.123566 
	C179.957733,37.819492 179.802750,35.639507 180.141220,33.539032 
	C180.307877,32.504810 181.387329,31.617670 182.053726,30.663973 
	C182.483963,30.893135 182.914215,31.122297 183.344452,31.351460 
	C183.344452,34.799465 183.399368,38.249474 183.273834,41.692902 
	C183.258423,42.115875 182.278091,42.503674 181.406830,42.675625 
z"/>
<path fill="#85AEE0" opacity="1.000000" stroke="none" 
	d="
M55.790375,22.713306 
	C53.229565,23.029024 50.553020,23.005846 47.426697,22.988617 
	C49.597977,18.886396 52.496204,18.665434 55.790375,22.713306 
z"/>
<path fill="#4171B8" opacity="1.000000" stroke="none" 
	d="
M33.559639,37.092728 
	C33.387257,36.623375 33.467144,36.016666 33.773552,35.183788 
	C34.848957,35.482433 35.697834,36.007244 36.329964,36.730057 
	C35.346107,36.937168 34.579006,36.946270 33.559639,37.092728 
z"/>
<path fill="#3B4046" opacity="1.000000" stroke="none" 
	d="
M122.178955,45.354141 
	C122.944572,44.999332 123.639542,45.002998 124.681992,45.008316 
	C124.763145,45.631973 124.496819,46.253979 124.230492,46.875980 
	C123.523094,46.488190 122.815689,46.100403 122.178955,45.354141 
z"/>
<path fill="#85AEE0" opacity="1.000000" stroke="none" 
	d="
M57.348610,29.954945 
	C57.563297,29.410347 58.157249,28.913633 58.930382,28.182343 
	C59.349537,28.449892 59.589508,28.952017 59.915573,29.724672 
	C60.001663,29.995203 60.019840,29.970144 60.019840,29.970144 
	C59.255852,29.981039 58.491863,29.991936 57.348610,29.954945 
z"/>
<path fill="#4171B8" opacity="1.000000" stroke="none" 
	d="
M32.111366,39.517139 
	C32.125935,38.884853 32.415462,38.132462 33.007172,37.300888 
	C33.001678,37.946815 32.694004,38.671925 32.111366,39.517139 
z"/>
<path fill="#4171B8" opacity="1.000000" stroke="none" 
	d="
M37.938004,38.775822 
	C38.007267,39.160458 37.991268,39.366165 37.946354,39.879982 
	C37.561375,39.655697 37.205311,39.123299 36.843781,38.333267 
	C37.176460,38.249386 37.514603,38.423141 37.938004,38.775822 
z"/>
<path fill="#85AEE0" opacity="1.000000" stroke="none" 
	d="
M59.104980,27.640392 
	C58.754402,27.463644 58.410362,26.982241 58.086060,26.185167 
	C58.441036,26.358244 58.776276,26.846991 59.104980,27.640392 
z"/>
<path fill="#4171B8" opacity="1.000000" stroke="none" 
	d="
M29.998421,40.036121 
	C30.375597,39.996273 30.752773,39.956429 31.413445,39.892120 
	C31.425415,40.315235 31.153891,40.762806 30.626869,41.323280 
	C30.371370,41.436188 30.160393,41.189548 30.071461,40.841133 
	C29.982529,40.492722 29.998421,40.036121 29.998421,40.036121 
z"/>
<path fill="#85AEE0" opacity="1.000000" stroke="none" 
	d="
M55.260788,30.856720 
	C55.430424,30.566542 55.881859,30.264444 56.616020,29.945427 
	C56.446693,30.233938 55.994640,30.539370 55.260788,30.856720 
z"/>
<path fill="#85AEE0" opacity="1.000000" stroke="none" 
	d="
M57.627426,24.802303 
	C57.417278,24.906296 57.228294,24.749716 57.017235,24.358364 
	C57.233768,24.212078 57.451576,24.351458 57.627426,24.802303 
z"/>
<path fill="#85AEE0" opacity="1.000000" stroke="none" 
	d="
M59.989044,30.003580 
	C60.095936,30.148018 60.215450,30.284079 60.334965,30.420141 
	C60.259846,30.362858 60.184723,30.305574 60.064720,30.109219 
	C60.019840,29.970144 60.001663,29.995203 59.989044,30.003580 
z"/>
<path fill="#6BA0E4" opacity="1.000000" stroke="none" 
	d="
M32.120865,30.945147 
	C31.913321,30.872583 31.879038,30.703035 31.887756,30.277313 
	C32.051880,30.296814 32.173000,30.572487 32.120865,30.945147 
z"/>
<path fill="#DDE4E9" opacity="1.000000" stroke="none" 
	d="
M128.011505,33.111305 
	C131.490936,34.724060 131.459854,37.201832 129.820816,39.680683 
	C129.416229,40.292561 127.051559,40.539639 126.629150,40.052162 
	C124.448967,37.536182 124.463799,35.018356 128.011505,33.111305 
z"/>
<path fill="#E1E7EB" opacity="1.000000" stroke="none" 
	d="
M115.850159,39.273499 
	C113.581276,41.640770 111.723022,40.797813 111.453423,38.434200 
	C111.264557,36.778419 112.740150,34.932785 113.472389,33.171940 
	C114.398094,34.434971 115.420563,35.642452 116.195419,36.992092 
	C116.455750,37.445545 116.086044,38.260723 115.850159,39.273499 
z"/>
<path fill="#F7F9FB" opacity="1.000000" stroke="none" 
	d="
M193.131378,35.371323 
	C191.675873,35.324295 190.610352,34.924664 189.544830,34.525032 
	C189.807419,33.986713 190.070007,33.448391 190.332611,32.910069 
	C191.395523,33.612953 192.458435,34.315838 193.131378,35.371323 
z"/>
<path fill="#DBE1E5" opacity="1.000000" stroke="none" 
	d="
M164.153473,33.154476 
	C168.251511,34.308941 167.350296,37.102291 166.450699,39.560966 
	C166.254654,40.096775 163.682526,40.549309 163.254761,40.081032 
	C161.167725,37.796242 161.244080,35.344955 164.153473,33.154476 
z"/>
<path fill="#2265CE" opacity="1.000000" stroke="none" 
	d="
M29.996712,39.651951 
	C29.998421,40.036121 29.982529,40.492722 29.963661,40.719830 
	C27.469721,41.332912 24.994650,41.718887 21.828587,42.212616 
	C22.803385,39.049828 23.456680,36.930180 24.200035,34.423370 
	C27.426529,34.433552 30.008976,35.434998 29.996712,39.651951 
z"/>
</svg>